<mxfile host="app.diagrams.net" modified="2023-08-25T17:27:16.266Z" agent="Mozilla/5.0 (X11; Linux x86_64; rv:103.0) Gecko/20100101 Firefox/103.0" etag="gOw4dQOYbZV3O68oYE4i" version="21.6.9" type="github">
  <diagram id="R2lEEEUBdFMjLlhIrx00" name="Page-1">
    <mxGraphModel dx="1434" dy="673" grid="1" gridSize="10" guides="1" tooltips="1" connect="1" arrows="1" fold="1" page="1" pageScale="1" pageWidth="850" pageHeight="1100" math="0" shadow="0" extFonts="Permanent Marker^https://fonts.googleapis.com/css?family=Permanent+Marker">
      <root>
        <mxCell id="0" />
        <mxCell id="1" parent="0" />
        <mxCell id="CJMGuEX6Wp9bEwVXv74r-7" style="edgeStyle=orthogonalEdgeStyle;rounded=0;orthogonalLoop=1;jettySize=auto;html=1;exitX=1;exitY=0.5;exitDx=0;exitDy=0;" edge="1" parent="1" source="CJMGuEX6Wp9bEwVXv74r-1">
          <mxGeometry relative="1" as="geometry">
            <mxPoint x="290" y="97" as="targetPoint" />
          </mxGeometry>
        </mxCell>
        <mxCell id="CJMGuEX6Wp9bEwVXv74r-1" value="VENDEDOR" style="swimlane;whiteSpace=wrap;html=1;" vertex="1" parent="1">
          <mxGeometry x="10" y="37" width="110" height="120" as="geometry" />
        </mxCell>
        <mxCell id="CJMGuEX6Wp9bEwVXv74r-2" value="CODIGO" style="text;html=1;align=center;verticalAlign=middle;resizable=0;points=[];autosize=1;strokeColor=none;fillColor=none;" vertex="1" parent="CJMGuEX6Wp9bEwVXv74r-1">
          <mxGeometry x="-10" y="23" width="70" height="30" as="geometry" />
        </mxCell>
        <mxCell id="CJMGuEX6Wp9bEwVXv74r-3" value="&lt;div&gt;NOME&lt;/div&gt;" style="text;html=1;align=center;verticalAlign=middle;resizable=0;points=[];autosize=1;strokeColor=none;fillColor=none;" vertex="1" parent="CJMGuEX6Wp9bEwVXv74r-1">
          <mxGeometry x="-10" y="43" width="60" height="30" as="geometry" />
        </mxCell>
        <mxCell id="CJMGuEX6Wp9bEwVXv74r-4" value="&lt;div&gt;ENDEREÇO&lt;/div&gt;" style="text;html=1;align=center;verticalAlign=middle;resizable=0;points=[];autosize=1;strokeColor=none;fillColor=none;" vertex="1" parent="CJMGuEX6Wp9bEwVXv74r-1">
          <mxGeometry x="-10" y="63" width="90" height="30" as="geometry" />
        </mxCell>
        <mxCell id="CJMGuEX6Wp9bEwVXv74r-5" value="COMISSÃO" style="text;html=1;align=center;verticalAlign=middle;resizable=0;points=[];autosize=1;strokeColor=none;fillColor=none;" vertex="1" parent="CJMGuEX6Wp9bEwVXv74r-1">
          <mxGeometry x="-10" y="83" width="90" height="30" as="geometry" />
        </mxCell>
        <mxCell id="CJMGuEX6Wp9bEwVXv74r-8" value="1" style="text;html=1;align=center;verticalAlign=middle;resizable=0;points=[];autosize=1;strokeColor=none;fillColor=none;" vertex="1" parent="1">
          <mxGeometry x="145" y="58" width="30" height="30" as="geometry" />
        </mxCell>
        <mxCell id="CJMGuEX6Wp9bEwVXv74r-10" style="edgeStyle=orthogonalEdgeStyle;rounded=0;orthogonalLoop=1;jettySize=auto;html=1;exitX=0.5;exitY=1;exitDx=0;exitDy=0;" edge="1" parent="1" source="CJMGuEX6Wp9bEwVXv74r-9" target="CJMGuEX6Wp9bEwVXv74r-11">
          <mxGeometry relative="1" as="geometry">
            <mxPoint x="330" y="190" as="targetPoint" />
          </mxGeometry>
        </mxCell>
        <mxCell id="CJMGuEX6Wp9bEwVXv74r-27" style="edgeStyle=orthogonalEdgeStyle;rounded=0;orthogonalLoop=1;jettySize=auto;html=1;exitX=1;exitY=0.5;exitDx=0;exitDy=0;entryX=1;entryY=0.5;entryDx=0;entryDy=0;" edge="1" parent="1" source="CJMGuEX6Wp9bEwVXv74r-9" target="CJMGuEX6Wp9bEwVXv74r-21">
          <mxGeometry relative="1" as="geometry">
            <mxPoint x="480" y="480" as="targetPoint" />
          </mxGeometry>
        </mxCell>
        <mxCell id="CJMGuEX6Wp9bEwVXv74r-9" value="ATENDER" style="rhombus;whiteSpace=wrap;html=1;" vertex="1" parent="1">
          <mxGeometry x="290" y="72" width="80" height="50" as="geometry" />
        </mxCell>
        <mxCell id="CJMGuEX6Wp9bEwVXv74r-11" value="CLIENTE" style="swimlane;whiteSpace=wrap;html=1;" vertex="1" parent="1">
          <mxGeometry x="265" y="190" width="130" height="140" as="geometry" />
        </mxCell>
        <mxCell id="CJMGuEX6Wp9bEwVXv74r-13" value="CODIGO" style="text;html=1;align=center;verticalAlign=middle;resizable=0;points=[];autosize=1;strokeColor=none;fillColor=none;" vertex="1" parent="1">
          <mxGeometry x="255" y="212" width="70" height="30" as="geometry" />
        </mxCell>
        <mxCell id="CJMGuEX6Wp9bEwVXv74r-14" value="NOME" style="text;html=1;align=center;verticalAlign=middle;resizable=0;points=[];autosize=1;strokeColor=none;fillColor=none;" vertex="1" parent="1">
          <mxGeometry x="256" y="231" width="60" height="30" as="geometry" />
        </mxCell>
        <mxCell id="CJMGuEX6Wp9bEwVXv74r-15" value="ENDEREÇO" style="text;html=1;align=center;verticalAlign=middle;resizable=0;points=[];autosize=1;strokeColor=none;fillColor=none;" vertex="1" parent="1">
          <mxGeometry x="257" y="250" width="90" height="30" as="geometry" />
        </mxCell>
        <mxCell id="CJMGuEX6Wp9bEwVXv74r-16" value="F. ACUMULADO" style="text;html=1;align=center;verticalAlign=middle;resizable=0;points=[];autosize=1;strokeColor=none;fillColor=none;" vertex="1" parent="1">
          <mxGeometry x="258" y="271" width="110" height="30" as="geometry" />
        </mxCell>
        <mxCell id="CJMGuEX6Wp9bEwVXv74r-17" value="L. DE CONTEÚDO" style="text;html=1;align=center;verticalAlign=middle;resizable=0;points=[];autosize=1;strokeColor=none;fillColor=none;" vertex="1" parent="1">
          <mxGeometry x="259" y="292" width="120" height="30" as="geometry" />
        </mxCell>
        <mxCell id="CJMGuEX6Wp9bEwVXv74r-28" style="edgeStyle=orthogonalEdgeStyle;rounded=0;orthogonalLoop=1;jettySize=auto;html=1;exitX=0;exitY=0.5;exitDx=0;exitDy=0;" edge="1" parent="1" source="CJMGuEX6Wp9bEwVXv74r-21">
          <mxGeometry relative="1" as="geometry">
            <mxPoint x="200" y="480" as="targetPoint" />
          </mxGeometry>
        </mxCell>
        <mxCell id="CJMGuEX6Wp9bEwVXv74r-21" value="TEV" style="rhombus;whiteSpace=wrap;html=1;" vertex="1" parent="1">
          <mxGeometry x="420" y="450" width="80" height="60" as="geometry" />
        </mxCell>
        <mxCell id="CJMGuEX6Wp9bEwVXv74r-22" style="edgeStyle=orthogonalEdgeStyle;rounded=0;orthogonalLoop=1;jettySize=auto;html=1;exitX=0.5;exitY=1;exitDx=0;exitDy=0;" edge="1" parent="1" source="CJMGuEX6Wp9bEwVXv74r-21" target="CJMGuEX6Wp9bEwVXv74r-21">
          <mxGeometry relative="1" as="geometry" />
        </mxCell>
        <mxCell id="CJMGuEX6Wp9bEwVXv74r-29" value="PEÇA" style="swimlane;whiteSpace=wrap;html=1;" vertex="1" parent="1">
          <mxGeometry x="60" y="480" width="140" height="140" as="geometry" />
        </mxCell>
        <mxCell id="CJMGuEX6Wp9bEwVXv74r-31" value="CODIGO" style="text;html=1;align=center;verticalAlign=middle;resizable=0;points=[];autosize=1;strokeColor=none;fillColor=none;" vertex="1" parent="1">
          <mxGeometry x="55" y="502" width="70" height="30" as="geometry" />
        </mxCell>
        <mxCell id="CJMGuEX6Wp9bEwVXv74r-32" value="DESCRIÇÃO" style="text;html=1;align=center;verticalAlign=middle;resizable=0;points=[];autosize=1;strokeColor=none;fillColor=none;" vertex="1" parent="1">
          <mxGeometry x="56" y="520" width="90" height="30" as="geometry" />
        </mxCell>
        <mxCell id="CJMGuEX6Wp9bEwVXv74r-33" value="PREÇO" style="text;html=1;align=center;verticalAlign=middle;resizable=0;points=[];autosize=1;strokeColor=none;fillColor=none;" vertex="1" parent="1">
          <mxGeometry x="53" y="538" width="70" height="30" as="geometry" />
        </mxCell>
        <mxCell id="CJMGuEX6Wp9bEwVXv74r-34" value="QUANTIDADE" style="text;html=1;align=center;verticalAlign=middle;resizable=0;points=[];autosize=1;strokeColor=none;fillColor=none;" vertex="1" parent="1">
          <mxGeometry x="55" y="557" width="100" height="30" as="geometry" />
        </mxCell>
        <mxCell id="CJMGuEX6Wp9bEwVXv74r-35" value="N" style="text;html=1;align=center;verticalAlign=middle;resizable=0;points=[];autosize=1;strokeColor=none;fillColor=none;" vertex="1" parent="1">
          <mxGeometry x="215" y="448" width="30" height="30" as="geometry" />
        </mxCell>
        <mxCell id="CJMGuEX6Wp9bEwVXv74r-36" value="N" style="text;html=1;align=center;verticalAlign=middle;resizable=0;points=[];autosize=1;strokeColor=none;fillColor=none;" vertex="1" parent="1">
          <mxGeometry x="335" y="158" width="30" height="30" as="geometry" />
        </mxCell>
      </root>
    </mxGraphModel>
  </diagram>
</mxfile>
